<?xml version="1.0" standalone="no"?>
<!DOCTYPE svg PUBLIC "-//W3C//DTD SVG 20010904//EN"
 "http://www.w3.org/TR/2001/REC-SVG-20010904/DTD/svg10.dtd">
<svg version="1.0" xmlns="http://www.w3.org/2000/svg"
 width="96px" height="96px" viewBox="0 0 96.000000 96.000000"
 preserveAspectRatio="xMidYMid meet">

<g transform="translate(0.000000,96.000000) scale(0.100000,-0.100000)"
fill="#0054A6" stroke="none">
<path d="M423 900 c-17 -10 -37 -28 -43 -39 -10 -19 -20 -21 -100 -21 -99 0
-132 -10 -149 -47 -7 -16 -11 -122 -11 -313 0 -191 4 -297 11 -313 18 -40 49
-47 207 -47 l147 0 0 83 c1 93 14 127 74 190 60 63 103 81 198 82 l83 0 0 147
c0 87 -5 157 -11 171 -17 37 -50 47 -149 47 -80 0 -90 2 -100 21 -15 27 -69
59 -100 59 -14 0 -39 -9 -57 -20z m87 -75 c26 -32 -13 -81 -47 -59 -35 22 -23
74 17 74 10 0 23 -7 30 -15z m164 -207 c8 -13 8 -23 0 -35 -10 -16 -32 -18
-189 -21 -182 -3 -205 2 -205 37 0 38 18 42 204 39 158 -3 180 -5 190 -20z
m-200 -160 c8 -13 8 -23 0 -35 -9 -14 -28 -19 -88 -21 -81 -3 -106 6 -106 37
0 34 22 42 104 39 62 -2 81 -7 90 -20z"/>
<path d="M695 385 c-52 -19 -111 -82 -125 -135 -20 -74 3 -144 64 -198 143
-126 365 15 316 199 -21 78 -115 150 -195 149 -11 -1 -38 -7 -60 -15z m37
-102 l28 -27 28 27 c31 29 51 34 70 15 19 -19 14 -39 -15 -70 l-27 -28 27 -28
c29 -31 34 -51 15 -70 -19 -19 -39 -14 -70 15 l-28 27 -28 -27 c-31 -29 -51
-34 -70 -15 -19 19 -14 39 15 70 l27 28 -27 28 c-29 31 -34 51 -15 70 19 19
39 14 70 -15z"/>
</g>
</svg>